# xmcd
#
# Track frame offsets:
#	150
#	14206
#	25799
#	36550
#	49587
#	62101
#	76039
#	90303
#	102061
#	112424
#	126646
#	137935
#	152546
#	165032
#	178984
#	191707
#	201939
#	213377
#	227520
#	239846
#	252672
#	264905
#	276720
#	290597
#
# Disc length: 3989 seconds
#
# Revision: 0
# Processed by: cddbd v1.5.2PL0 Copyright (c) Steve Scherf et al.
# Submitted via: EasyCDDAExtractor 15.3.0.1
#
DISCID=6e0f9318
DTITLE=Various Artist - Canadian Country Vol. 3
DYEAR=1900
DGENRE=
TTITLE0=Eric and Johnny - Mansion Of Dreams
TTITLE1=Mcmullen Bob and Tom - Redheads Blondes And Brunettes
TTITLE2=Andrews Abbie - Lord Alexander's Reel
TTITLE3=Bushell Billy - I Bought A Rock For My Rocky Mountain Gal
TTITLE4=Buckeye Boys - Little Liza Jane
TTITLE5=Calgary Slim - When You're Falling In Love
TTITLE6=Scheer Oral and Cammie Howard - Abdul The Bulbul Ameer
TTITLE7=Cameron Boyd - I'm Scared To Go Home
TTITLE8=Traugott Wally - Big Four Special
TTITLE9=Preese Irvin - Short Time Love Affair
TTITLE10=Cody Betty - Kiss That Made A Fool Of Me
TTITLE11=Ganam King - Four String Polka
TTITLE12=Zachary Andy - Land Of Roses
TTITLE13=Lariviere Henry - North Cannonball
TTITLE14=Mersey Laurie - I'm Wasting My Tears Over You
TTITLE15=Mathieu Rene and Vic Virgili - Let's Go
TTITLE16=Jenson Jack - Lonely World
TTITLE17=Scheer Oral and Cammie Howard - Three Finger Bland
TTITLE18=Smith Reg - Little Henry
TTITLE19=Stevenson Scotty - Twelve Foot Davis
TTITLE20=Lamothe William - Jambalaya
TTITLE21=Bolyer Maurice - Midnight Special
TTITLE22=Lone Pine Hal and Betty Cody - Columbus Stockade Blues
TTITLE23=Lucky Ambo and Slim Boucher - Rocky Mountain Breakdown
EXTD=
EXTT0=
EXTT1=
EXTT2=
EXTT3=
EXTT4=
EXTT5=
EXTT6=
EXTT7=
EXTT8=
EXTT9=
EXTT10=
EXTT11=
EXTT12=
EXTT13=
EXTT14=
EXTT15=
EXTT16=
EXTT17=
EXTT18=
EXTT19=
EXTT20=
EXTT21=
EXTT22=
EXTT23=
PLAYORDER=
